<svg width="283" height="84" viewBox="0 0 283 84" fill="none" xmlns="http://www.w3.org/2000/svg">
<path d="M33.9057 43.0203V44.3643H24.6417V43.0203L27.2817 42.6843C27.6337 42.6203 27.8897 42.5563 28.0497 42.4923C28.2097 42.3963 28.3537 42.1883 28.4817 41.8683C28.6097 41.5483 28.7857 41.0363 29.0097 40.3323L38.1777 11.7243H42.3057L51.5217 40.3323C51.7457 41.0363 51.9217 41.5483 52.0497 41.8683C52.1777 42.1883 52.3217 42.3963 52.4817 42.4923C52.6737 42.5563 52.9297 42.6203 53.2497 42.6843L55.8897 43.0203V44.3643H42.6417V43.0203L45.2817 42.6843C45.7937 42.6203 46.0657 42.4923 46.0977 42.3003C46.1617 42.0763 46.0177 41.4203 45.6657 40.3323L43.8417 34.3803H32.7537L30.8817 40.3323C30.5617 41.4203 30.4177 42.0763 30.4497 42.3003C30.4817 42.4923 30.7537 42.6203 31.2657 42.6843L33.9057 43.0203ZM33.3297 32.7003H43.3137L38.3697 16.7643L33.3297 32.7003ZM57.6499 13.0683V11.7243H72.0979C75.6179 11.7243 78.2419 12.5403 79.9699 14.1723C81.7299 15.7723 82.6099 17.9163 82.6099 20.6043V21.7083C82.6099 24.3963 81.7299 26.5563 79.9699 28.1883C78.2419 29.8203 75.6179 30.6363 72.0979 30.6363H67.1059V40.3323C67.1059 41.4203 67.1539 42.0763 67.2499 42.3003C67.3459 42.4923 67.6499 42.6203 68.1619 42.6843L71.7619 43.0203V44.3643H57.6499V43.0203L60.2899 42.6843C60.8019 42.6203 61.1059 42.4923 61.2019 42.3003C61.2979 42.0763 61.3459 41.4203 61.3459 40.3323V15.7563C61.3459 14.6683 61.2979 14.0283 61.2019 13.8363C61.1059 13.6123 60.8019 13.4683 60.2899 13.4043L57.6499 13.0683ZM72.0979 13.4043H67.1059V28.9563H72.0979C73.5059 28.9563 74.5779 28.3963 75.3139 27.2763C76.0819 26.1563 76.4659 24.6203 76.4659 22.6683V19.6443C76.4659 17.6923 76.0819 16.1723 75.3139 15.0843C74.5779 13.9643 73.5059 13.4043 72.0979 13.4043ZM90.3901 43.0203V44.3643H81.1261V43.0203L83.7661 42.6843C84.1181 42.6203 84.3741 42.5563 84.5341 42.4923C84.6941 42.3963 84.8381 42.1883 84.9661 41.8683C85.0941 41.5483 85.2701 41.0363 85.4941 40.3323L94.6621 11.7243H98.7901L108.006 40.3323C108.23 41.0363 108.406 41.5483 108.534 41.8683C108.662 42.1883 108.806 42.3963 108.966 42.4923C109.158 42.5563 109.414 42.6203 109.734 42.6843L112.374 43.0203V44.3643H99.1261V43.0203L101.766 42.6843C102.278 42.6203 102.55 42.4923 102.582 42.3003C102.646 42.0763 102.502 41.4203 102.15 40.3323L100.326 34.3803H89.2381L87.3661 40.3323C87.0461 41.4203 86.9021 42.0763 86.9341 42.3003C86.9661 42.4923 87.2381 42.6203 87.7501 42.6843L90.3901 43.0203ZM89.8141 32.7003H99.7981L94.8541 16.7643L89.8141 32.7003ZM127.945 30.9243V29.5803H141.577V30.9243L138.937 31.2603C138.425 31.3243 138.121 31.4683 138.025 31.6923C137.929 31.8843 137.881 32.5243 137.881 33.6123V44.3643H136.585C135.721 43.4683 134.761 42.7163 133.705 42.1083C132.841 42.8763 131.817 43.5323 130.633 44.0763C129.449 44.5883 128.009 44.8443 126.313 44.8443C123.689 44.8443 121.433 44.1883 119.545 42.8763C117.689 41.5323 116.265 39.6923 115.273 37.3563C114.281 34.9883 113.785 32.3003 113.785 29.2923V26.2683C113.785 23.3563 114.281 20.7803 115.273 18.5403C116.265 16.2683 117.721 14.4923 119.641 13.2123C121.561 11.9003 123.913 11.2443 126.697 11.2443C129.321 11.2443 131.481 11.7243 133.177 12.6843C134.905 13.6123 136.169 14.8603 136.969 16.4283C137.769 17.9643 138.073 19.6443 137.881 21.4683L132.265 22.8603C132.617 19.6603 132.265 17.2123 131.209 15.5163C130.153 13.7883 128.585 12.9243 126.505 12.9243C122.121 12.9243 119.929 16.8123 119.929 24.5883V31.4523C119.929 39.2603 122.249 43.1643 126.889 43.1643C127.913 43.1643 128.937 42.9563 129.961 42.5403C131.017 42.1243 131.897 41.5163 132.601 40.7163V33.6123C132.601 32.5243 132.553 31.8683 132.457 31.6443C132.361 31.4203 132.057 31.2923 131.545 31.2603L127.945 30.9243ZM164.765 13.0683V11.7243H174.077V13.0683L171.437 13.4043C170.925 13.4683 170.621 13.6123 170.525 13.8363C170.429 14.0283 170.381 14.6683 170.381 15.7563V44.3643H167.741L150.125 15.9003V40.3323C150.125 41.4203 150.173 42.0763 150.269 42.3003C150.365 42.4923 150.669 42.6203 151.181 42.6843L153.821 43.0203V44.3643H144.509V43.0203L147.149 42.6843C147.661 42.6203 147.965 42.4923 148.061 42.3003C148.157 42.0763 148.205 41.4203 148.205 40.3323V15.7563C148.205 14.6683 148.157 14.0283 148.061 13.8363C147.965 13.6123 147.661 13.4683 147.149 13.4043L144.509 13.0683V11.7243H154.157L168.461 34.7163V15.7563C168.461 14.6683 168.413 14.0283 168.317 13.8363C168.221 13.6123 167.917 13.4683 167.405 13.4043L164.765 13.0683ZM184.14 43.0203V44.3643H174.876V43.0203L177.516 42.6843C177.868 42.6203 178.124 42.5563 178.284 42.4923C178.444 42.3963 178.588 42.1883 178.716 41.8683C178.844 41.5483 179.02 41.0363 179.244 40.3323L188.412 11.7243H192.54L201.756 40.3323C201.98 41.0363 202.156 41.5483 202.284 41.8683C202.412 42.1883 202.556 42.3963 202.716 42.4923C202.908 42.5563 203.164 42.6203 203.484 42.6843L206.124 43.0203V44.3643H192.876V43.0203L195.516 42.6843C196.028 42.6203 196.3 42.4923 196.332 42.3003C196.396 42.0763 196.252 41.4203 195.9 40.3323L194.076 34.3803H182.988L181.116 40.3323C180.796 41.4203 180.652 42.0763 180.684 42.3003C180.716 42.4923 180.988 42.6203 181.5 42.6843L184.14 43.0203ZM183.564 32.7003H193.548L188.604 16.7643L183.564 32.7003ZM207.884 13.0683V11.7243H221.036V13.0683L218.396 13.4043C217.884 13.4683 217.58 13.6123 217.484 13.8363C217.388 14.0283 217.34 14.6683 217.34 15.7563V40.3323C217.34 41.4203 217.388 42.0763 217.484 42.3003C217.58 42.4923 217.884 42.6203 218.396 42.6843L221.036 43.0203V44.3643H207.884V43.0203L210.524 42.6843C211.036 42.6203 211.34 42.4923 211.436 42.3003C211.532 42.0763 211.58 41.4203 211.58 40.3323V15.7563C211.58 14.6683 211.532 14.0283 211.436 13.8363C211.34 13.6123 211.036 13.4683 210.524 13.4043L207.884 13.0683ZM245.437 13.0683V11.7243H254.749V13.0683L252.109 13.4043C251.597 13.4683 251.293 13.6123 251.197 13.8363C251.101 14.0283 251.053 14.6683 251.053 15.7563V44.3643H248.413L230.797 15.9003V40.3323C230.797 41.4203 230.845 42.0763 230.941 42.3003C231.037 42.4923 231.341 42.6203 231.853 42.6843L234.493 43.0203V44.3643H225.181V43.0203L227.821 42.6843C228.333 42.6203 228.637 42.4923 228.733 42.3003C228.829 42.0763 228.877 41.4203 228.877 40.3323V15.7563C228.877 14.6683 228.829 14.0283 228.733 13.8363C228.637 13.6123 228.333 13.4683 227.821 13.4043L225.181 13.0683V11.7243H234.829L249.133 34.7163V15.7563C249.133 14.6683 249.085 14.0283 248.989 13.8363C248.893 13.6123 248.589 13.4683 248.077 13.4043L245.437 13.0683Z" fill="#F0FDF4"/>
<path d="M99.6052 59.8516L99.2282 61.9966H93.3132L93.3782 61.6586L94.1062 61.5806C94.2016 61.5719 94.2666 61.5589 94.3012 61.5416C94.3446 61.5156 94.3792 61.4636 94.4052 61.3856C94.4312 61.2989 94.4616 61.1516 94.4962 60.9436L95.6922 54.2096C95.7442 53.9062 95.7616 53.7286 95.7442 53.6766C95.7269 53.6246 95.6489 53.5899 95.5102 53.5726L94.8082 53.5076L94.8732 53.1566H98.0062L97.9412 53.5076L97.2132 53.5726C97.1266 53.5812 97.0616 53.5986 97.0182 53.6246C96.9749 53.6506 96.9402 53.7069 96.9142 53.7936C96.8882 53.8716 96.8579 54.0102 96.8232 54.2096L95.5232 61.5806H97.8762C98.0842 61.5806 98.2316 61.5762 98.3182 61.5676C98.4049 61.5502 98.4699 61.5199 98.5132 61.4766C98.5566 61.4246 98.5999 61.3466 98.6432 61.2426L99.2672 59.8516H99.6052ZM105.607 60.7226C105.303 61.2512 104.922 61.6196 104.463 61.8276C104.003 62.0269 103.548 62.1266 103.098 62.1266C102.5 62.1266 102.001 61.9836 101.603 61.6976C101.213 61.4116 100.94 61.0129 100.784 60.5016C100.636 59.9816 100.623 59.3792 100.745 58.6946L100.797 58.4086C100.901 57.8192 101.1 57.3036 101.395 56.8616C101.698 56.4109 102.075 56.0599 102.526 55.8086C102.985 55.5572 103.501 55.4316 104.073 55.4316C104.515 55.4316 104.887 55.5052 105.191 55.6526C105.494 55.7999 105.724 55.9949 105.88 56.2376C106.036 56.4716 106.114 56.7229 106.114 56.9916C106.114 57.4249 105.958 57.7976 105.646 58.1096C105.342 58.4216 104.918 58.6686 104.372 58.8506C103.834 59.0239 103.21 59.1366 102.5 59.1886L101.824 59.2406C101.711 60.0639 101.767 60.6836 101.993 61.0996C102.227 61.5069 102.608 61.7106 103.137 61.7106C103.345 61.7106 103.57 61.6716 103.813 61.5936C104.055 61.5156 104.285 61.3812 104.502 61.1906C104.718 60.9999 104.883 60.7356 104.996 60.3976L105.607 60.7226ZM101.98 58.2396L101.889 58.8246L102.487 58.7856C103.197 58.7422 103.743 58.6252 104.125 58.4346C104.506 58.2439 104.77 58.0142 104.918 57.7456C105.065 57.4769 105.139 57.2082 105.139 56.9396C105.139 56.6016 105.039 56.3372 104.84 56.1466C104.649 55.9472 104.38 55.8476 104.034 55.8476C103.574 55.8476 103.154 56.0382 102.773 56.4196C102.391 56.7922 102.127 57.3989 101.98 58.2396ZM117.144 60.9176C116.954 61.3162 116.728 61.6066 116.468 61.7886C116.217 61.9706 115.94 62.0616 115.636 62.0616C115.238 62.0616 114.943 61.9229 114.752 61.6456C114.562 61.3682 114.523 60.9349 114.635 60.3456L115.155 57.7976C115.285 57.1389 115.277 56.6622 115.129 56.3676C114.982 56.0729 114.739 55.9256 114.401 55.9256C114.193 55.9256 113.959 55.9819 113.699 56.0946C113.448 56.2072 113.179 56.4066 112.893 56.6926C112.616 56.9699 112.326 57.3686 112.022 57.8886L111.307 61.9966H110.241L111.177 56.6146C111.229 56.3199 111.247 56.1466 111.229 56.0946C111.212 56.0339 111.138 55.9949 111.008 55.9776L110.306 55.9126L110.371 55.5616H112.399L112.165 56.9396C112.547 56.4022 112.945 56.0166 113.361 55.7826C113.786 55.5486 114.211 55.4316 114.635 55.4316C115.277 55.4316 115.736 55.6439 116.013 56.0686C116.299 56.4932 116.369 57.0652 116.221 57.7846L115.688 60.3846C115.602 60.8266 115.563 61.1472 115.571 61.3466C115.58 61.5372 115.667 61.6326 115.831 61.6326C115.979 61.6326 116.126 61.5589 116.273 61.4116C116.429 61.2556 116.564 60.9956 116.676 60.6316L117.144 60.9176ZM123.205 62.0616C122.884 62.0616 122.629 61.9662 122.438 61.7756C122.256 61.5762 122.156 61.2772 122.139 60.8786C121.844 61.3379 121.528 61.6629 121.19 61.8536C120.852 62.0356 120.505 62.1266 120.15 62.1266C119.639 62.1266 119.223 61.9706 118.902 61.6586C118.581 61.3379 118.365 60.9132 118.252 60.3846C118.139 59.8559 118.144 59.2666 118.265 58.6166L118.317 58.3306C118.43 57.7239 118.629 57.2039 118.915 56.7706C119.21 56.3372 119.565 56.0079 119.981 55.7826C120.397 55.5486 120.839 55.4316 121.307 55.4316C121.671 55.4316 121.987 55.5052 122.256 55.6526C122.533 55.7912 122.759 55.9906 122.932 56.2506C123.053 56.1552 123.17 56.0469 123.283 55.9256C123.396 55.8042 123.508 55.6829 123.621 55.5616H124.076L123.283 60.0466C123.17 60.6879 123.127 61.1126 123.153 61.3206C123.179 61.5286 123.261 61.6326 123.4 61.6326C123.53 61.6326 123.669 61.5589 123.816 61.4116C123.972 61.2556 124.111 60.9956 124.232 60.6316L124.687 60.9176C124.496 61.3162 124.275 61.6066 124.024 61.7886C123.773 61.9706 123.5 62.0616 123.205 62.0616ZM119.37 58.9546C119.223 59.8212 119.24 60.4929 119.422 60.9696C119.613 61.4462 119.912 61.6846 120.319 61.6846C120.484 61.6846 120.67 61.6412 120.878 61.5546C121.086 61.4592 121.303 61.2859 121.528 61.0346C121.762 60.7746 122 60.4019 122.243 59.9166L122.776 56.8486C122.62 56.5106 122.425 56.2636 122.191 56.1076C121.966 55.9516 121.697 55.8736 121.385 55.8736C120.856 55.8736 120.436 56.0816 120.124 56.4976C119.821 56.9136 119.608 57.4856 119.487 58.2136L119.37 58.9546ZM127.743 54.0926C127.318 54.0926 127.106 53.8846 127.106 53.4686C127.106 53.2519 127.175 53.0699 127.314 52.9226C127.461 52.7666 127.652 52.6886 127.886 52.6886C128.085 52.6886 128.241 52.7449 128.354 52.8576C128.475 52.9616 128.536 53.1089 128.536 53.2996C128.536 53.5162 128.462 53.7026 128.315 53.8586C128.176 54.0146 127.985 54.0926 127.743 54.0926ZM125.845 55.9126L125.91 55.5616H127.977L127.197 60.0466C127.084 60.6879 127.041 61.1126 127.067 61.3206C127.093 61.5286 127.175 61.6326 127.314 61.6326C127.444 61.6326 127.582 61.5589 127.73 61.4116C127.886 61.2556 128.02 60.9956 128.133 60.6316L128.601 60.9176C128.41 61.3162 128.185 61.6066 127.925 61.7886C127.673 61.9706 127.405 62.0616 127.119 62.0616C126.72 62.0616 126.421 61.9056 126.222 61.5936C126.031 61.2816 125.992 60.8006 126.105 60.1506L126.716 56.6146C126.768 56.3199 126.785 56.1466 126.768 56.0946C126.75 56.0339 126.677 55.9949 126.547 55.9776L125.845 55.9126ZM136.606 60.9176C136.416 61.3162 136.19 61.6066 135.93 61.7886C135.679 61.9706 135.402 62.0616 135.098 62.0616C134.7 62.0616 134.405 61.9229 134.214 61.6456C134.024 61.3682 133.985 60.9349 134.097 60.3456L134.617 57.7976C134.747 57.1389 134.739 56.6622 134.591 56.3676C134.444 56.0729 134.201 55.9256 133.863 55.9256C133.655 55.9256 133.421 55.9819 133.161 56.0946C132.91 56.2072 132.641 56.4066 132.355 56.6926C132.078 56.9699 131.788 57.3686 131.484 57.8886L130.769 61.9966H129.703L130.639 56.6146C130.691 56.3199 130.709 56.1466 130.691 56.0946C130.674 56.0339 130.6 55.9949 130.47 55.9776L129.768 55.9126L129.833 55.5616H131.861L131.627 56.9396C132.009 56.4022 132.407 56.0166 132.823 55.7826C133.248 55.5486 133.673 55.4316 134.097 55.4316C134.739 55.4316 135.198 55.6439 135.475 56.0686C135.761 56.4932 135.831 57.0652 135.683 57.7846L135.15 60.3846C135.064 60.8266 135.025 61.1472 135.033 61.3466C135.042 61.5372 135.129 61.6326 135.293 61.6326C135.441 61.6326 135.588 61.5589 135.735 61.4116C135.891 61.2556 136.026 60.9956 136.138 60.6316L136.606 60.9176ZM143.35 61.6586L143.285 61.9966H139.892L139.957 61.6586L140.685 61.5806C140.781 61.5719 140.846 61.5589 140.88 61.5416C140.924 61.5156 140.958 61.4636 140.984 61.3856C141.01 61.2989 141.041 61.1516 141.075 60.9436L142.271 54.2096C142.323 53.9062 142.341 53.7286 142.323 53.6766C142.306 53.6246 142.228 53.5899 142.089 53.5726L141.387 53.5076L141.452 53.1566H147.393L147.029 55.2756H146.678L146.548 53.9106C146.531 53.7632 146.492 53.6722 146.431 53.6376C146.379 53.5942 146.202 53.5726 145.898 53.5726H143.506L142.817 57.4466H144.442C144.65 57.4466 144.798 57.4422 144.884 57.4336C144.971 57.4162 145.032 57.3859 145.066 57.3426C145.11 57.2906 145.153 57.2126 145.196 57.1086L145.625 56.1336H145.963L145.43 59.1756H145.092L145.014 58.2006C145.006 58.0446 144.971 57.9492 144.91 57.9146C144.85 57.8799 144.668 57.8626 144.364 57.8626H142.752L142.206 60.9436C142.154 61.2469 142.137 61.4289 142.154 61.4896C142.172 61.5416 142.25 61.5719 142.388 61.5806L143.35 61.6586ZM151.215 56.1466C151.068 56.1466 150.903 56.1942 150.721 56.2896C150.548 56.3849 150.361 56.5582 150.162 56.8096C149.963 57.0609 149.746 57.4206 149.512 57.8886L148.784 61.9966H147.718L148.667 56.6146C148.719 56.3199 148.736 56.1466 148.719 56.0946C148.702 56.0339 148.628 55.9949 148.498 55.9776L147.783 55.9126L147.848 55.5616H149.889L149.655 56.9136C149.993 56.3762 150.34 55.9949 150.695 55.7696C151.05 55.5442 151.397 55.4316 151.735 55.4316C152.012 55.4316 152.259 55.5096 152.476 55.6656C152.693 55.8216 152.844 56.0772 152.931 56.4326L152.021 57.0436C151.952 56.7142 151.848 56.4846 151.709 56.3546C151.579 56.2159 151.414 56.1466 151.215 56.1466ZM158.231 62.0616C157.911 62.0616 157.655 61.9662 157.464 61.7756C157.282 61.5762 157.183 61.2772 157.165 60.8786C156.871 61.3379 156.554 61.6629 156.216 61.8536C155.878 62.0356 155.532 62.1266 155.176 62.1266C154.665 62.1266 154.249 61.9706 153.928 61.6586C153.608 61.3379 153.391 60.9132 153.278 60.3846C153.166 59.8559 153.17 59.2666 153.291 58.6166L153.343 58.3306C153.456 57.7239 153.655 57.2039 153.941 56.7706C154.236 56.3372 154.591 56.0079 155.007 55.7826C155.423 55.5486 155.865 55.4316 156.333 55.4316C156.697 55.4316 157.014 55.5052 157.282 55.6526C157.56 55.7912 157.785 55.9906 157.958 56.2506C158.08 56.1552 158.197 56.0469 158.309 55.9256C158.422 55.8042 158.535 55.6829 158.647 55.5616H159.102L158.309 60.0466C158.197 60.6879 158.153 61.1126 158.179 61.3206C158.205 61.5286 158.288 61.6326 158.426 61.6326C158.556 61.6326 158.695 61.5589 158.842 61.4116C158.998 61.2556 159.137 60.9956 159.258 60.6316L159.713 60.9176C159.523 61.3162 159.302 61.6066 159.05 61.7886C158.799 61.9706 158.526 62.0616 158.231 62.0616ZM154.396 58.9546C154.249 59.8212 154.266 60.4929 154.448 60.9696C154.639 61.4462 154.938 61.6846 155.345 61.6846C155.51 61.6846 155.696 61.6412 155.904 61.5546C156.112 61.4592 156.329 61.2859 156.554 61.0346C156.788 60.7746 157.027 60.4019 157.269 59.9166L157.802 56.8486C157.646 56.5106 157.451 56.2636 157.217 56.1076C156.992 55.9516 156.723 55.8736 156.411 55.8736C155.883 55.8736 155.462 56.0816 155.15 56.4976C154.847 56.9136 154.635 57.4856 154.513 58.2136L154.396 58.9546ZM167.735 60.9176C167.545 61.3162 167.319 61.6066 167.059 61.7886C166.808 61.9706 166.531 62.0616 166.227 62.0616C165.829 62.0616 165.534 61.9229 165.343 61.6456C165.153 61.3682 165.114 60.9349 165.226 60.3456L165.746 57.7976C165.876 57.1389 165.868 56.6622 165.72 56.3676C165.573 56.0729 165.33 55.9256 164.992 55.9256C164.784 55.9256 164.55 55.9819 164.29 56.0946C164.039 56.2072 163.77 56.4066 163.484 56.6926C163.207 56.9699 162.917 57.3686 162.613 57.8886L161.898 61.9966H160.832L161.768 56.6146C161.82 56.3199 161.838 56.1466 161.82 56.0946C161.803 56.0339 161.729 55.9949 161.599 55.9776L160.897 55.9126L160.962 55.5616H162.99L162.756 56.9396C163.138 56.4022 163.536 56.0166 163.952 55.7826C164.377 55.5486 164.802 55.4316 165.226 55.4316C165.868 55.4316 166.327 55.6439 166.604 56.0686C166.89 56.4932 166.96 57.0652 166.812 57.7846L166.279 60.3846C166.193 60.8266 166.154 61.1472 166.162 61.3466C166.171 61.5372 166.258 61.6326 166.422 61.6326C166.57 61.6326 166.717 61.5589 166.864 61.4116C167.02 61.2556 167.155 60.9956 167.267 60.6316L167.735 60.9176ZM172.015 55.8476C171.582 55.8476 171.183 56.0382 170.819 56.4196C170.455 56.7922 170.204 57.3989 170.065 58.2396L169.935 59.0196C169.788 59.9209 169.818 60.5969 170.026 61.0476C170.243 61.4896 170.602 61.7106 171.105 61.7106C171.304 61.7106 171.517 61.6716 171.742 61.5936C171.976 61.5156 172.193 61.3812 172.392 61.1906C172.6 60.9912 172.765 60.7226 172.886 60.3846L173.484 60.7226C173.181 61.2512 172.808 61.6196 172.366 61.8276C171.933 62.0269 171.486 62.1266 171.027 62.1266C170.464 62.1266 169.996 61.9836 169.623 61.6976C169.25 61.4116 168.99 61.0129 168.843 60.5016C168.704 59.9816 168.696 59.3792 168.817 58.6946L168.869 58.4086C168.982 57.8192 169.185 57.3036 169.48 56.8616C169.775 56.4109 170.143 56.0599 170.585 55.8086C171.027 55.5572 171.521 55.4316 172.067 55.4316C172.578 55.4316 172.999 55.5399 173.328 55.7566C173.657 55.9732 173.878 56.2636 173.991 56.6276C174.104 56.9916 174.086 57.3946 173.939 57.8366L172.886 58.0446C173.111 57.3512 173.142 56.8139 172.977 56.4326C172.821 56.0426 172.5 55.8476 172.015 55.8476ZM180.105 62.0616C179.785 62.0616 179.529 61.9662 179.338 61.7756C179.156 61.5762 179.057 61.2772 179.039 60.8786C178.745 61.3379 178.428 61.6629 178.09 61.8536C177.752 62.0356 177.406 62.1266 177.05 62.1266C176.539 62.1266 176.123 61.9706 175.802 61.6586C175.482 61.3379 175.265 60.9132 175.152 60.3846C175.04 59.8559 175.044 59.2666 175.165 58.6166L175.217 58.3306C175.33 57.7239 175.529 57.2039 175.815 56.7706C176.11 56.3372 176.465 56.0079 176.881 55.7826C177.297 55.5486 177.739 55.4316 178.207 55.4316C178.571 55.4316 178.888 55.5052 179.156 55.6526C179.434 55.7912 179.659 55.9906 179.832 56.2506C179.954 56.1552 180.071 56.0469 180.183 55.9256C180.296 55.8042 180.409 55.6829 180.521 55.5616H180.976L180.183 60.0466C180.071 60.6879 180.027 61.1126 180.053 61.3206C180.079 61.5286 180.162 61.6326 180.3 61.6326C180.43 61.6326 180.569 61.5589 180.716 61.4116C180.872 61.2556 181.011 60.9956 181.132 60.6316L181.587 60.9176C181.397 61.3162 181.176 61.6066 180.924 61.7886C180.673 61.9706 180.4 62.0616 180.105 62.0616ZM176.27 58.9546C176.123 59.8212 176.14 60.4929 176.322 60.9696C176.513 61.4462 176.812 61.6846 177.219 61.6846C177.384 61.6846 177.57 61.6412 177.778 61.5546C177.986 61.4592 178.203 61.2859 178.428 61.0346C178.662 60.7746 178.901 60.4019 179.143 59.9166L179.676 56.8486C179.52 56.5106 179.325 56.2636 179.091 56.1076C178.866 55.9516 178.597 55.8736 178.285 55.8736C177.757 55.8736 177.336 56.0816 177.024 56.4976C176.721 56.9136 176.509 57.4856 176.387 58.2136L176.27 58.9546ZM184.643 54.0926C184.219 54.0926 184.006 53.8846 184.006 53.4686C184.006 53.2519 184.076 53.0699 184.214 52.9226C184.362 52.7666 184.552 52.6886 184.786 52.6886C184.986 52.6886 185.142 52.7449 185.254 52.8576C185.376 52.9616 185.436 53.1089 185.436 53.2996C185.436 53.5162 185.363 53.7026 185.215 53.8586C185.077 54.0146 184.886 54.0926 184.643 54.0926ZM182.745 55.9126L182.81 55.5616H184.877L184.097 60.0466C183.985 60.6879 183.941 61.1126 183.967 61.3206C183.993 61.5286 184.076 61.6326 184.214 61.6326C184.344 61.6326 184.483 61.5589 184.63 61.4116C184.786 61.2556 184.921 60.9956 185.033 60.6316L185.501 60.9176C185.311 61.3162 185.085 61.6066 184.825 61.7886C184.574 61.9706 184.305 62.0616 184.019 62.0616C183.621 62.0616 183.322 61.9056 183.122 61.5936C182.932 61.2816 182.893 60.8006 183.005 60.1506L183.616 56.6146C183.668 56.3199 183.686 56.1466 183.668 56.0946C183.651 56.0339 183.577 55.9949 183.447 55.9776L182.745 55.9126ZM188.294 62.1266C187.912 62.1266 187.557 62.0746 187.228 61.9706C186.898 61.8666 186.63 61.6976 186.422 61.4636C186.222 61.2209 186.11 60.9046 186.084 60.5146L186.838 60.2546C186.829 60.8179 186.963 61.2036 187.241 61.4116C187.518 61.6196 187.865 61.7236 188.281 61.7236C188.766 61.7236 189.16 61.6196 189.464 61.4116C189.776 61.1949 189.932 60.8916 189.932 60.5016C189.932 60.2416 189.845 60.0162 189.672 59.8256C189.507 59.6262 189.217 59.4616 188.801 59.3316L188.047 59.0846C187.631 58.9546 187.306 58.7466 187.072 58.4606C186.846 58.1746 186.734 57.8322 186.734 57.4336C186.734 57.1129 186.812 56.8009 186.968 56.4976C187.132 56.1942 187.388 55.9429 187.735 55.7436C188.081 55.5356 188.541 55.4316 189.113 55.4316C189.676 55.4316 190.122 55.5312 190.452 55.7306C190.79 55.9299 191.011 56.1856 191.115 56.4976C191.227 56.8096 191.223 57.1432 191.102 57.4986L190.036 57.7066C190.252 57.1086 190.27 56.6492 190.088 56.3286C189.906 56.0079 189.559 55.8476 189.048 55.8476C188.632 55.8476 188.298 55.9559 188.047 56.1726C187.795 56.3806 187.67 56.6666 187.67 57.0306C187.67 57.3339 187.752 57.5766 187.917 57.7586C188.09 57.9319 188.328 58.0662 188.632 58.1616L189.386 58.4086C189.836 58.5472 190.192 58.7639 190.452 59.0586C190.72 59.3532 190.855 59.7216 190.855 60.1636C190.855 60.4929 190.764 60.8092 190.582 61.1126C190.408 61.4159 190.131 61.6629 189.75 61.8536C189.377 62.0356 188.892 62.1266 188.294 62.1266Z" fill="#F0FDF4"/>
</svg>
